<?xml version="1.0" encoding="utf-8"?>
<!-- Generator: Adobe Illustrator 18.1.0, SVG Export Plug-In . SVG Version: 6.00 Build 0)  -->
<svg version="1.1" xmlns="http://www.w3.org/2000/svg" xmlns:xlink="http://www.w3.org/1999/xlink" x="0px" y="0px"
	 viewBox="0 0 20 20" enable-background="new 0 0 20 20" xml:space="preserve">
<g id="Layer_4" display="none">
	<rect x="-4518" y="-5" display="inline" fill="#A21600" width="4988.832" height="31"/>
</g>
<g id="Layer_3" display="none">
</g>
<g id="Layer_1">
	<g>
		<path fill="#333333" d="M10.998,16.988v-6l2.695,2.69c0.948-0.95,1.537-2.259,1.541-3.703c0.009-2.891-2.328-5.228-5.219-5.219
			s-5.241,2.359-5.25,5.25c-0.007,2.244,1.4,4.154,3.382,4.893L7.53,16.535c-2.643-0.984-4.518-3.531-4.509-6.523
			c0.011-3.855,3.145-6.989,7-7C13.875,3,16.991,6.116,16.979,9.97c-0.006,1.928-0.793,3.676-2.061,4.943l2.04,2.036L10.998,16.988z
			"/>
	</g>
</g>
<g id="Layer_2">
</g>
</svg>
